<svg width="80" height="25" viewBox="0 0 80 25" fill="none" xmlns="http://www.w3.org/2000/svg">
<rect x="0.578669" y="0.803279" width="79.082" height="24" rx="3.34426" stroke="white" stroke-opacity="0.2" stroke-width="0.393443"/>
<path fill-rule="evenodd" clip-rule="evenodd" d="M60.8058 19.9769H60.2035V13.3411H60.8058V19.9769ZM65.6241 19.3738V16.3573C65.6241 16.3573 65.4569 15.1203 63.6309 15.1203C61.805 15.1203 61.7534 16.458 61.7534 16.458H62.3322C62.3322 16.458 62.3039 15.5436 63.6172 15.5436C64.9305 15.5436 65.0218 16.3573 65.0218 16.3573V16.9608H63.8174C62.2854 16.9608 61.5559 17.8201 61.5559 18.6443C61.5559 19.4686 62.0147 20.054 63.1372 20.054C63.8239 20.0451 64.4876 19.8055 65.0218 19.3738V19.9769H65.6241V19.3738V19.3738ZM65.0218 18.1671C65.0218 19.1188 63.7651 19.5961 63.1864 19.5961C62.6076 19.5961 62.1276 19.3207 62.1276 18.6868C62.1276 18.053 62.8996 17.5639 63.8194 17.5639H65.0238V18.1671H65.0218ZM66.2265 15.151H66.8289L68.3653 19.2459L69.8399 15.151H70.4422C70.4422 15.151 68.8425 20.6902 68.6356 21.1836C68.4286 21.677 67.5701 21.9146 66.963 21.9146C66.7713 21.9038 66.5846 21.8492 66.4173 21.7549L66.568 21.3319C66.6952 21.3881 66.8336 21.414 66.9725 21.4075C67.2408 21.4075 67.7066 20.787 67.7066 20.787L68.0454 19.9789L66.2265 15.151ZM57.3966 15.1203C56.8506 15.083 56.322 15.3208 55.9877 15.7541V15.151H55.3853V21.7868H55.9877V19.3738C56.0062 19.4045 56.2458 20.054 57.4104 20.054C58.5966 20.054 59.5141 19.2927 59.5141 17.5494C59.5141 15.806 58.4148 15.1203 57.3966 15.1203V15.1203ZM57.3133 19.6169C56.3403 19.6169 56.0078 18.1978 55.9893 18.1671V16.9608C56.0078 16.9352 56.4367 15.5715 57.3841 15.5715C58.2453 15.5715 58.9653 16.4454 58.9653 17.5871C58.9653 18.7289 58.3 19.6169 57.3133 19.6169ZM29.9765 13.8758C29.9765 13.8758 29.1932 13.0799 27.2338 13.0799C26.2582 13.0404 25.308 13.3961 24.598 14.0664C23.8881 14.7367 23.4785 15.6651 23.4619 16.6413C23.4619 18.1553 24.51 20.067 27.1162 20.067C28.0875 20.031 29.0495 19.8647 29.9765 19.5725V18.398C29.9765 17.8209 30.6938 17.5639 30.6938 17.5639H28.2847L27.547 18.0294C28.024 17.9609 28.5057 17.9317 28.9874 17.942V19.3978C28.625 19.5759 28.2255 19.6657 27.8217 19.6598C25.9656 19.6218 24.4786 18.1102 24.4711 16.2538C24.4711 14.2693 25.8914 13.4296 27.1257 13.4296C27.8709 13.4395 28.5752 13.7724 29.0559 14.342L28.8304 14.7107L29.1932 14.6135L29.9765 13.8758ZM33.2928 15.1387C32.6209 15.1157 31.969 15.3694 31.4894 15.8405C31.0097 16.3117 30.7445 16.959 30.7555 17.6312C30.7704 18.9351 31.8339 19.9831 33.1378 19.9789C34.6605 19.9789 35.7275 18.9654 35.7275 17.5395C35.7498 16.89 35.4991 16.2608 35.0362 15.8046C34.5733 15.3484 33.9404 15.1069 33.2913 15.1387H33.2928ZM33.3966 19.6685C32.2426 19.6685 31.6977 17.8897 31.6977 16.9899C31.6977 16.0901 32.3091 15.4492 33.0134 15.4492C34.0182 15.4492 34.7119 16.6327 34.7119 18.014C34.7103 18.4897 34.549 19.6685 33.395 19.6685H33.3966ZM38.7342 15.1411C38.0625 15.1182 37.4109 15.3718 36.9315 15.8427C36.4521 16.3135 36.1868 16.9605 36.1976 17.6324C36.2125 18.9358 37.2757 19.9833 38.5791 19.9789C40.101 19.9789 41.1672 18.9662 41.1672 17.5395C41.1896 16.8905 40.939 16.2617 40.4763 15.8059C40.0137 15.3502 39.3812 15.109 38.7326 15.1411H38.7342ZM38.8375 19.6689C37.6843 19.6689 37.1398 17.8909 37.1398 16.9934C37.1398 16.096 37.7508 15.4535 38.4547 15.4535C39.4592 15.4535 40.1528 16.6366 40.1528 18.0168C40.1512 18.4905 39.9895 19.6689 38.8359 19.6689H38.8375ZM45.1828 19.6358C44.6835 19.2919 44.5859 19.1275 44.5859 18.9784C44.5859 18.8293 44.591 18.7089 44.9459 18.3725C45.3625 18.0574 45.6127 17.5695 45.6254 17.0473C45.6442 16.5159 45.4068 16.0077 44.9872 15.6809L45.5943 15.6605L46.2014 15.3009H43.8348C42.7153 15.2618 41.7695 16.1241 41.7051 17.2425C41.7051 17.9507 42.3067 18.7986 43.4953 18.7986C43.5647 18.7995 43.634 18.7909 43.7011 18.773C43.6535 18.8887 43.6291 19.0126 43.6291 19.1377C43.6525 19.3784 43.7556 19.6044 43.9222 19.7798C43.9222 19.7798 41.1803 19.7826 41.1803 21.5365C41.1803 22.5969 42.3791 22.995 43.3615 22.995C44.344 22.995 46.0263 22.4662 46.0263 21.1152C46.016 20.51 45.6972 19.9521 45.1812 19.6358H45.1828ZM43.8812 18.4905C43.1636 18.4905 42.5923 17.4195 42.5923 16.7723C42.5923 16.1251 42.9165 15.6628 43.4874 15.6628C44.0583 15.6628 44.7377 16.3175 44.7377 17.512C44.7362 17.9279 44.5973 18.4905 43.8796 18.4905H43.8812ZM43.8273 22.5587C43.4953 22.5587 42.0832 22.4277 42.0832 21.3103C42.0832 20.1929 43.7113 20.0906 43.9001 20.0906C44.0177 20.091 44.1352 20.1001 44.2515 20.1178C44.7531 20.5608 45.3086 20.7803 45.3086 21.4736C45.3071 22.4662 44.1574 22.5607 43.8258 22.5607L43.8273 22.5587ZM46.3527 13.3411L46.7567 12.7301L48.1597 12.7376C47.8135 12.9221 47.5664 13.0838 47.5574 13.9443C47.5483 14.8047 47.5574 18.7706 47.5574 18.7706C47.6119 19.1504 47.88 19.465 48.2463 19.5792C48.3621 19.5737 48.4779 19.5892 48.5882 19.6248L48.1597 19.9789H46.3527C46.3527 19.9789 46.9519 19.6059 46.955 19.3757V13.3411H46.3527V13.3411ZM52.648 16.397C52.447 15.5984 51.7011 15.0598 50.8798 15.1203C50.2536 15.1079 49.6502 15.3553 49.2129 15.8037C48.7756 16.2521 48.5434 16.8615 48.5715 17.4872C48.5715 18.6601 49.2683 19.9789 51.0046 19.9789C51.7075 19.9893 52.3698 19.6503 52.7723 19.074C52.3958 19.2829 51.9754 19.4002 51.5452 19.4167C50.5785 19.4167 49.4552 18.3992 49.4552 16.9041C49.4552 15.8969 50.1587 15.4921 50.5993 15.4921C50.858 15.4624 51.1163 15.55 51.3035 15.7309C51.4907 15.9118 51.5872 16.167 51.5664 16.4265C51.4877 16.5669 49.4867 17.3818 49.4867 17.3818L50.2873 17.3401L52.648 16.397Z" fill="white"/>
<path d="M26.8141 6.17873V6.32037C26.8141 6.66135 26.6921 6.94988 26.4482 7.18594C26.2042 7.41938 25.8777 7.5361 25.4685 7.5361C25.0514 7.5361 24.7065 7.3984 24.4337 7.12299C24.161 6.84758 24.0246 6.51053 24.0246 6.11184C24.0246 5.71315 24.161 5.3761 24.4337 5.10069C24.7065 4.82529 25.0514 4.68758 25.4685 4.68758C25.7229 4.68758 25.9564 4.74922 26.1688 4.8725C26.3813 4.99578 26.5452 5.15971 26.6606 5.3643L26.4167 5.50594C26.3301 5.33807 26.2016 5.2043 26.0311 5.10463C25.8606 5.00496 25.6731 4.95512 25.4685 4.95512C25.1249 4.95512 24.8442 5.0666 24.6265 5.28955C24.4088 5.5125 24.3 5.7866 24.3 6.11184C24.3 6.43709 24.4088 6.71119 24.6265 6.93414C24.8442 7.15709 25.1249 7.26856 25.4685 7.26856C25.778 7.26856 26.0259 7.19119 26.2121 7.03643C26.3983 6.87906 26.5046 6.67971 26.5308 6.4384H25.437V6.17873H26.8141ZM28.156 5.47447C28.4471 5.47447 28.6819 5.57807 28.8602 5.78529C29.0412 5.98988 29.1317 6.2325 29.1317 6.51315C29.1317 6.54201 29.1291 6.58266 29.1238 6.63512H27.3966C27.4228 6.83447 27.5068 6.99315 27.6484 7.11119C27.7927 7.2266 27.9697 7.2843 28.1796 7.2843C28.3291 7.2843 28.4576 7.25414 28.5651 7.19381C28.6753 7.13086 28.7579 7.04955 28.813 6.94988L29.0412 7.08365C28.9546 7.22266 28.8366 7.33283 28.6871 7.41414C28.5376 7.49545 28.3671 7.5361 28.1756 7.5361C27.8661 7.5361 27.6143 7.43906 27.4202 7.24496C27.2261 7.05086 27.1291 6.8043 27.1291 6.50529C27.1291 6.21151 27.2248 5.96627 27.4163 5.76955C27.6078 5.57283 27.8543 5.47447 28.156 5.47447ZM28.156 5.72627C27.9514 5.72627 27.7796 5.78791 27.6405 5.91119C27.5042 6.03184 27.4228 6.18922 27.3966 6.38332H28.8642C28.8379 6.1761 28.7579 6.01479 28.6242 5.89938C28.4904 5.78397 28.3343 5.72627 28.156 5.72627ZM30.5297 5.77348H29.9632V6.96561C29.9632 7.07315 29.9842 7.15053 30.0261 7.19774C30.0681 7.24233 30.1311 7.26594 30.215 7.26856C30.2989 7.26856 30.4038 7.26594 30.5297 7.26069V7.48889C30.2543 7.53086 30.0471 7.51119 29.9081 7.42988C29.7717 7.34856 29.7035 7.19381 29.7035 6.96561V5.77348H29.2904V5.52168H29.7035V5.04955L29.9632 4.97086V5.52168H30.5297V5.77348ZM32.2097 5.04955C32.173 5.08627 32.1284 5.10463 32.076 5.10463C32.0235 5.10463 31.9789 5.08627 31.9422 5.04955C31.9055 5.01283 31.8871 4.96824 31.8871 4.91578C31.8871 4.86332 31.9055 4.81873 31.9422 4.78201C31.9789 4.74529 32.0235 4.72692 32.076 4.72692C32.1284 4.72692 32.173 4.74529 32.2097 4.78201C32.2465 4.81873 32.2648 4.86332 32.2648 4.91578C32.2648 4.96824 32.2465 5.01283 32.2097 5.04955ZM31.9461 7.48889V5.52168H32.2058V7.48889H31.9461ZM33.7995 5.77348H33.2329V6.96561C33.2329 7.07315 33.2539 7.15053 33.2959 7.19774C33.3378 7.24233 33.4008 7.26594 33.4847 7.26856C33.5686 7.26856 33.6736 7.26594 33.7995 7.26069V7.48889C33.5241 7.53086 33.3168 7.51119 33.1778 7.42988C33.0414 7.34856 32.9732 7.19381 32.9732 6.96561V5.77348H32.5601V5.52168H32.9732V5.04955L33.2329 4.97086V5.52168H33.7995V5.77348ZM36.8644 7.24102C36.665 7.43774 36.4211 7.5361 36.1326 7.5361C35.8441 7.5361 35.5988 7.43774 35.3968 7.24102C35.1975 7.04168 35.0978 6.79643 35.0978 6.50529C35.0978 6.21414 35.1975 5.9702 35.3968 5.77348C35.5988 5.57414 35.8441 5.47447 36.1326 5.47447C36.4211 5.47447 36.665 5.57414 36.8644 5.77348C37.0663 5.9702 37.1673 6.21414 37.1673 6.50529C37.1673 6.79643 37.0663 7.04168 36.8644 7.24102ZM35.5818 7.06004C35.7313 7.20955 35.9149 7.2843 36.1326 7.2843C36.3503 7.2843 36.5339 7.20955 36.6834 7.06004C36.8329 6.90791 36.9077 6.72299 36.9077 6.50529C36.9077 6.28758 36.8329 6.10397 36.6834 5.95447C36.5339 5.80233 36.3503 5.72627 36.1326 5.72627C35.9149 5.72627 35.7313 5.80233 35.5818 5.95447C35.4322 6.10397 35.3575 6.28758 35.3575 6.50529C35.3575 6.72299 35.4322 6.90791 35.5818 7.06004ZM38.5225 5.47447C38.7612 5.47447 38.9488 5.54791 39.0851 5.69479C39.2242 5.83906 39.2937 6.03447 39.2937 6.28102V7.48889H39.034V6.28102C39.034 6.10529 38.9868 5.96889 38.8924 5.87184C38.8006 5.77479 38.6694 5.72627 38.4989 5.72627C38.3101 5.72627 38.1566 5.7866 38.0386 5.90725C37.9206 6.02529 37.8615 6.20889 37.8615 6.45807V7.48889H37.6019V5.52168H37.8615V5.82856C38.0084 5.5925 38.2288 5.47447 38.5225 5.47447Z" fill="white"/>
<path fill-rule="evenodd" clip-rule="evenodd" d="M19.4023 13.4465L16.6643 14.9743L14.4697 12.7903L16.6643 10.6063L19.4023 12.134C19.6695 12.2424 19.8443 12.5019 19.8443 12.7903C19.8443 13.0786 19.6695 13.3381 19.4023 13.4465V13.4465ZM14.1138 12.435L6.90671 5.26331C7.11832 5.30093 7.32118 5.37722 7.50514 5.48835C8.39196 5.98724 12.9948 8.55721 16.2081 10.3509L14.1138 12.435ZM6.3399 20.1705C6.15928 19.9766 6.05067 19.7266 6.03223 19.4623V6.11472C6.05108 5.85107 6.15966 5.60184 6.3399 5.40849L13.7567 12.7887L6.3399 20.1705ZM14.1138 13.1455L16.2081 15.2308C12.9948 17.0245 8.39196 19.5945 7.50514 20.0933C7.32118 20.2045 7.11832 20.2808 6.90671 20.3184L14.1138 13.1455Z" fill="white"/>
</svg>
