<svg width="212" height="91" viewBox="0 0 212 91" fill="none" xmlns="http://www.w3.org/2000/svg">
<path d="M4.10125 21.1278C4.59192 20.1571 5.43458 19.6718 6.62925 19.6718V20.6958C5.90392 20.6958 5.30125 20.9091 4.82125 21.3358C4.34125 21.7625 4.10125 22.4345 4.10125 23.3518V27.7998H3.04525V19.7998H4.10125V21.1278ZM14.4881 19.6078C15.6721 19.6078 16.6268 20.0291 17.3521 20.8718C18.0881 21.7038 18.4561 22.6905 18.4561 23.8318C18.4561 23.9491 18.4455 24.1145 18.4241 24.3278H11.4001C11.5068 25.1385 11.8481 25.7838 12.4241 26.2638C13.0108 26.7331 13.7308 26.9678 14.5841 26.9678C15.1921 26.9678 15.7148 26.8451 16.1521 26.5998C16.6001 26.3438 16.9361 26.0131 17.1601 25.6078L18.0881 26.1518C17.7361 26.7171 17.2561 27.1651 16.6481 27.4958C16.0401 27.8265 15.3468 27.9918 14.5681 27.9918C13.3095 27.9918 12.2855 27.5971 11.4961 26.8078C10.7068 26.0185 10.3121 25.0158 10.3121 23.7998C10.3121 22.6051 10.7015 21.6078 11.4801 20.8078C12.2588 20.0078 13.2615 19.6078 14.4881 19.6078ZM14.4881 20.6318C13.6561 20.6318 12.9575 20.8825 12.3921 21.3838C11.8375 21.8745 11.5068 22.5145 11.4001 23.3038H17.3681C17.2615 22.4611 16.9361 21.8051 16.3921 21.3358C15.8481 20.8665 15.2135 20.6318 14.4881 20.6318ZM27.0799 19.6078C28.0505 19.6078 28.8132 19.9065 29.3679 20.5038C29.9332 21.0905 30.2159 21.8851 30.2159 22.8878V27.7998H29.1599V22.8878C29.1599 22.1731 28.9679 21.6185 28.5839 21.2238C28.2105 20.8291 27.6772 20.6318 26.9839 20.6318C26.2159 20.6318 25.5919 20.8771 25.1119 21.3678C24.6319 21.8478 24.3919 22.5945 24.3919 23.6078V27.7998H23.3359V19.7998H24.3919V21.0478C24.9892 20.0878 25.8852 19.6078 27.0799 19.6078ZM39.6977 20.8238H37.3937V25.6718C37.3937 26.1091 37.4791 26.4238 37.6497 26.6158C37.8204 26.7971 38.0764 26.8931 38.4177 26.9038C38.7591 26.9038 39.1857 26.8931 39.6977 26.8718V27.7998C38.5777 27.9705 37.7351 27.8905 37.1697 27.5598C36.6151 27.2291 36.3377 26.5998 36.3377 25.6718V20.8238H34.6577V19.7998H36.3377V17.8798L37.3937 17.5598V19.7998H39.6977V20.8238ZM51.0534 19.7998H52.1094V27.7998H51.0534V26.2318C50.3174 27.4051 49.24 27.9918 47.8214 27.9918C46.68 27.9918 45.704 27.5865 44.8934 26.7758C44.0934 25.9651 43.6934 24.9731 43.6934 23.7998C43.6934 22.6265 44.0934 21.6345 44.8934 20.8238C45.704 20.0131 46.68 19.6078 47.8214 19.6078C49.24 19.6078 50.3174 20.1945 51.0534 21.3678V19.7998ZM45.6614 26.0558C46.2694 26.6638 47.016 26.9678 47.9014 26.9678C48.7867 26.9678 49.5334 26.6638 50.1414 26.0558C50.7494 25.4371 51.0534 24.6851 51.0534 23.7998C51.0534 22.9145 50.7494 22.1678 50.1414 21.5598C49.5334 20.9411 48.7867 20.6318 47.9014 20.6318C47.016 20.6318 46.2694 20.9411 45.6614 21.5598C45.0534 22.1678 44.7494 22.9145 44.7494 23.7998C44.7494 24.6851 45.0534 25.4371 45.6614 26.0558ZM57.5453 27.7998V16.1198H58.6013V27.7998H57.5453Z" fill="#fff"/>
<path d="M69.4468 22.4668H210.25" stroke="#fff" stroke-width="0.977801"/>
<path d="M23.3062 52.1007L23.163 52.2583C22.5709 52.4015 22.2272 52.6021 22.1317 52.8599C22.0362 53.1081 21.9885 54.0726 21.9885 55.7532C21.9885 56.5648 22.0267 57.3669 22.103 58.1595C18.9137 59.3626 16.0204 59.9642 13.4231 59.9642C10.0047 59.9642 7.2355 59.0093 5.11565 57.0996C3.00536 55.1802 1.95021 52.5686 1.95021 49.2647C1.95021 44.9582 3.81701 41.8883 7.55061 40.0549C9.25985 39.2146 11.4322 38.7944 14.0677 38.7944C15.5955 38.7944 17.1424 38.9615 18.7084 39.2957C19.9975 39.5727 21.0145 39.8878 21.7593 40.2411L21.8882 40.4989C21.6399 41.3392 21.4346 42.8002 21.2723 44.8818L21.1147 45.025H20.2553L20.1121 44.8818C20.1121 44.7004 20.093 44.328 20.0548 43.7646C20.0166 43.1917 19.9689 42.7906 19.9116 42.5614C19.4914 41.9885 18.7753 41.5015 17.7631 41.1005C16.6745 40.6803 15.5 40.4702 14.2396 40.4702C10.8593 40.4702 8.52459 41.8357 7.2355 44.5667C6.64347 45.8271 6.34745 47.2881 6.34745 48.9496C6.34745 51.6042 7.05407 53.8052 8.4673 55.5526C9.93782 57.3669 11.8524 58.2741 14.2109 58.2741C15.4618 58.2741 16.6698 58.0067 17.8347 57.472C17.9016 56.8035 17.935 55.8869 17.935 54.7219C17.935 53.7766 17.9016 53.2036 17.8347 53.0031C17.7774 52.8503 17.596 52.7405 17.2904 52.6737C17.0326 52.6164 16.2257 52.5448 14.8698 52.4588L14.7122 52.3156V51.4132L14.8698 51.27C16.2544 51.3082 17.7058 51.3225 19.2241 51.313C20.1026 51.3034 21.4155 51.2891 23.163 51.27L23.3062 51.4132V52.1007ZM48.4547 59.2767L48.3258 59.4199C46.2059 59.3626 44.9264 59.334 44.4871 59.334C42.7301 59.334 41.0973 59.3626 39.5886 59.4199L39.4597 59.2767V58.3743L39.6029 58.2168L40.849 58.1452C41.3742 58.1165 41.6368 57.9303 41.6368 57.5865C41.6368 57.386 41.5031 56.9372 41.2357 56.2402L40.0756 53.218C38.7578 53.1989 37.4114 53.1893 36.0364 53.1893C35.2916 53.1893 34.1839 53.1989 32.7134 53.218L32.0832 54.9654C31.6057 56.2927 31.367 57.1234 31.367 57.4576C31.367 57.8205 31.5914 58.0353 32.0402 58.1022C32.2885 58.1404 32.7755 58.1786 33.5012 58.2168L33.6444 58.36V59.2767L33.5012 59.4199C31.7346 59.3626 30.5983 59.334 30.0922 59.334C29.7007 59.334 28.7315 59.3626 27.1846 59.4199L27.0414 59.291V58.36L27.1989 58.2168C28.1825 58.1595 28.784 57.9637 29.0037 57.6295C29.2328 57.2953 30.0779 55.3044 31.5389 51.6567L35.2773 42.3036C35.5542 41.5779 35.9743 40.4846 36.5377 39.0236H38.5716L46.1629 56.8847C46.459 57.5627 46.7263 57.9446 46.965 58.0306C47.2802 58.1452 47.7337 58.2024 48.3258 58.2024L48.4547 58.36V59.2767ZM39.3737 51.5708L36.3085 44.0654L33.3723 51.5708C34.1553 51.5994 35.1722 51.6137 36.4231 51.6137C37.6358 51.6137 38.6194 51.5994 39.3737 51.5708ZM67.4871 54.55C67.277 55.9441 67.172 57.5197 67.172 59.2767L67.0287 59.4199L56.6157 59.334C54.8778 59.334 53.6508 59.3626 52.9347 59.4199L52.7914 59.2767V58.8756L52.863 58.7038C53.5697 58.255 53.9516 57.9733 54.0089 57.8587C54.0948 57.6868 54.1474 57.0518 54.1665 55.9537L54.2094 52.7453V45.4834C54.2094 43.2108 54.1474 41.7307 54.0232 41.0432C53.9755 40.7663 53.8132 40.5896 53.5362 40.5132C53.393 40.475 52.8344 40.4273 51.8604 40.37L51.7172 40.2268V39.2528L51.8604 39.1239C52.8439 39.1812 54.2858 39.2098 56.186 39.2098C58.1531 39.2098 59.6475 39.1812 60.6692 39.1239L60.8125 39.2528V40.2411L60.6692 40.37C59.6952 40.4273 59.1366 40.475 58.9934 40.5132C58.7165 40.5896 58.5542 40.7663 58.5064 41.0432C58.3823 41.7307 58.3202 43.2108 58.3202 45.4834V54.0487C58.3202 55.2996 58.3441 56.5123 58.3918 57.6868H60.3398C63.128 57.6868 64.8373 57.577 65.4675 57.3574C65.5725 57.3192 65.6489 57.2667 65.6967 57.1998C65.7922 57.0661 65.8829 56.7797 65.9688 56.3404L66.3126 54.5643L66.4558 54.4068H67.3295L67.4871 54.55ZM86.9062 54.55C86.6962 55.9441 86.5911 57.5197 86.5911 59.2767L86.4479 59.4199L76.0349 59.334C74.297 59.334 73.07 59.3626 72.3538 59.4199L72.2106 59.2767V58.8756L72.2822 58.7038C72.9888 58.255 73.3708 57.9733 73.4281 57.8587C73.514 57.6773 73.5665 57.0423 73.5856 55.9537L73.6286 52.7453V45.4834C73.6286 43.2108 73.5665 41.7307 73.4424 41.0432C73.3946 40.7663 73.2323 40.5896 72.9554 40.5132C72.8122 40.475 72.2536 40.4273 71.2796 40.37L71.1363 40.2268V39.2528L71.2796 39.1239C72.244 39.1812 73.7336 39.2098 75.7484 39.2098C77.5436 39.2098 80.9573 39.1812 85.9896 39.1239L86.1471 39.2384L85.9609 40.8283C85.9036 41.3344 85.8607 41.7641 85.832 42.1174L85.7317 43.4495L85.5885 43.607H84.7578L84.6145 43.4638C84.605 42.1652 84.5286 41.4251 84.3854 41.2437C84.2803 41.11 83.7647 41.005 82.8384 40.9286C81.9218 40.8522 81.1149 40.814 80.4178 40.814C79.5871 40.814 78.7468 40.8474 77.8969 40.9143C77.7919 41.9169 77.7394 43.3063 77.7394 45.0823V48.0473C78.4937 48.095 79.1048 48.1189 79.5727 48.1189L81.4491 48.1045C82.3276 48.095 82.8241 48.0234 82.9387 47.8897C83.0915 47.7178 83.1918 47.0733 83.2395 45.9561L83.3827 45.8128H84.2708L84.414 45.9561C84.3758 47.0255 84.3567 48.0043 84.3567 48.8923C84.3567 49.8568 84.3758 50.9119 84.414 52.0578L84.2708 52.1867H83.3111L83.1679 52.0434C83.1679 50.9453 83.0915 50.296 82.9387 50.0955C82.7859 49.8854 82.3228 49.7469 81.5494 49.6801C80.9669 49.6324 80.3462 49.6085 79.6873 49.6085C78.9903 49.6085 78.3409 49.6324 77.7394 49.6801V54.0487C77.7394 55.2996 77.7632 56.5123 77.811 57.6868H79.7589C82.5472 57.6868 84.2564 57.577 84.8867 57.3574C84.9917 57.3192 85.0681 57.2667 85.1158 57.1998C85.2113 57.0661 85.302 56.7797 85.388 56.3404L85.7317 54.5643L85.875 54.4068H86.7487L86.9062 54.55ZM112.728 48.7491C112.728 52.2726 111.701 55.037 109.648 57.0423C107.653 58.9902 104.927 59.9642 101.47 59.9642C98.2041 59.9642 95.6403 59.0475 93.7782 57.2141C91.9162 55.3712 90.9852 52.8121 90.9852 49.5369C90.9852 44.9439 92.7374 41.7641 96.2418 39.9976C97.8365 39.1955 99.7988 38.7944 102.129 38.7944C105.461 38.7944 108.054 39.6681 109.906 41.4156C111.787 43.1917 112.728 45.6362 112.728 48.7491ZM108.316 49.4939C108.316 46.7247 107.758 44.5285 106.641 42.9052C105.533 41.2724 103.905 40.4559 101.756 40.4559C98.9203 40.4559 97.0392 41.7307 96.1129 44.2802C95.6355 45.5884 95.3968 47.0542 95.3968 48.6775C95.3968 51.6281 95.9411 53.958 97.0296 55.6672C98.1564 57.4338 99.8418 58.317 102.086 58.317C104.807 58.317 106.636 56.9754 107.572 54.2922C108.068 52.8694 108.316 51.27 108.316 49.4939ZM139.194 40.2268L139.037 40.37C138.063 40.4273 137.504 40.475 137.361 40.5132C137.084 40.5896 136.921 40.7663 136.874 41.0432C136.75 41.7307 136.688 43.2108 136.688 45.4834V51.2986C136.688 55.5861 136.75 58.3791 136.874 59.6777L136.688 59.8067C135.609 59.6252 134.792 59.4963 134.238 59.4199C131.679 56.5457 127.311 51.3034 121.132 43.693V53.0604C121.132 55.333 121.195 56.8131 121.319 57.5006C121.366 57.7775 121.529 57.9542 121.806 58.0306C121.949 58.0688 122.508 58.1165 123.481 58.1738L123.625 58.317V59.291L123.481 59.4199C122.383 59.3626 121.362 59.334 120.416 59.334C119.318 59.334 118.215 59.3626 117.108 59.4199L116.964 59.291V58.317L117.108 58.1738C118.082 58.1165 118.64 58.0688 118.783 58.0306C119.06 57.9542 119.223 57.7775 119.27 57.5006C119.395 56.8131 119.457 55.333 119.457 53.0604V45.4834C119.457 43.2108 119.395 41.7307 119.27 41.0432C119.223 40.7663 119.06 40.5896 118.783 40.5132C118.64 40.475 118.082 40.4273 117.108 40.37L116.964 40.2268V39.2528L117.108 39.1239C118.015 39.1812 118.879 39.2098 119.7 39.2098C120.989 39.2098 122.059 39.1812 122.909 39.1239C126.346 43.7073 130.385 48.6202 135.026 53.8625V45.4834C135.026 43.2108 134.964 41.7307 134.84 41.0432C134.792 40.7663 134.63 40.5896 134.353 40.5132C134.21 40.475 133.651 40.4273 132.677 40.37L132.534 40.2268V39.2528L132.677 39.1239C133.746 39.1812 134.763 39.2098 135.728 39.2098C136.96 39.2098 138.067 39.1812 139.051 39.1239L139.194 39.2528V40.2268ZM162.037 56.8274L161.378 58.2884C159.363 59.3961 157.109 59.9499 154.617 59.9499C149.633 59.9499 146.224 58.1547 144.39 54.5643C143.54 52.9028 143.116 51.1029 143.116 49.1645C143.116 46.0324 144.156 43.5354 146.238 41.6734C148.367 39.7541 151.275 38.7944 154.961 38.7944C157.3 38.7944 159.587 39.2194 161.822 40.0692L162.008 40.284C161.683 41.6018 161.483 43.1439 161.406 44.9105L161.277 45.0537H160.432L160.289 44.8961C160.26 43.7407 160.208 42.9386 160.132 42.4898C158.938 41.1434 157.214 40.4702 154.961 40.4702C152.64 40.4702 150.821 41.2055 149.504 42.676C148.186 44.1466 147.527 46.1423 147.527 48.6632C147.527 52.0721 148.702 54.6885 151.051 56.5123C152.302 57.4863 153.977 57.9733 156.078 57.9733C157.988 57.9733 159.855 57.4815 161.678 56.498L162.037 56.8274ZM186.712 59.2767L186.583 59.4199C184.464 59.3626 183.184 59.334 182.745 59.334C180.988 59.334 179.355 59.3626 177.846 59.4199L177.717 59.2767V58.3743L177.861 58.2168L179.107 58.1452C179.632 58.1165 179.894 57.9303 179.894 57.5865C179.894 57.386 179.761 56.9372 179.493 56.2402L178.333 53.218C177.015 53.1989 175.669 53.1893 174.294 53.1893C173.549 53.1893 172.442 53.1989 170.971 53.218L170.341 54.9654C169.863 56.2927 169.625 57.1234 169.625 57.4576C169.625 57.8205 169.849 58.0353 170.298 58.1022C170.546 58.1404 171.033 58.1786 171.759 58.2168L171.902 58.36V59.2767L171.759 59.4199C169.992 59.3626 168.856 59.334 168.35 59.334C167.958 59.334 166.989 59.3626 165.442 59.4199L165.299 59.291V58.36L165.457 58.2168C166.44 58.1595 167.042 57.9637 167.261 57.6295C167.491 57.2953 168.336 55.3044 169.797 51.6567L173.535 42.3036C173.812 41.5779 174.232 40.4846 174.795 39.0236H176.829L184.421 56.8847C184.717 57.5627 184.984 57.9446 185.223 58.0306C185.538 58.1452 185.991 58.2024 186.583 58.2024L186.712 58.36V59.2767ZM177.631 51.5708L174.566 44.0654L171.63 51.5708C172.413 51.5994 173.43 51.6137 174.681 51.6137C175.894 51.6137 176.877 51.5994 177.631 51.5708ZM209.583 59.2767L209.44 59.4199C209.373 59.4199 209.192 59.4151 208.896 59.4056C207.588 59.3579 206.771 59.334 206.447 59.334C205.96 59.334 205.186 59.3626 204.126 59.4199C204.088 59.1908 203.907 58.8088 203.582 58.2741L200.03 52.3442L198.44 49.9236C198.239 49.6276 197.958 49.3363 197.595 49.0499L197.752 48.5629C197.972 48.5724 198.134 48.5772 198.239 48.5772C199.175 48.5772 199.91 48.4292 200.445 48.1332C200.932 47.8658 201.381 47.3979 201.792 46.7295C202.202 46.0611 202.407 45.2638 202.407 44.3375C202.407 42.7238 201.806 41.6352 200.603 41.0718C200.03 40.8045 199.194 40.6708 198.096 40.6708C197.619 40.6708 197.16 40.709 196.721 40.7854C196.626 41.7211 196.578 43.3158 196.578 45.5693V53.0604C196.578 55.333 196.64 56.8131 196.764 57.5006C196.812 57.7775 196.974 57.9542 197.251 58.0306C197.394 58.0688 197.953 58.1165 198.927 58.1738L199.07 58.317V59.2767L198.941 59.4199C197.986 59.3626 196.516 59.334 194.53 59.334C192.477 59.334 191.006 59.3626 190.118 59.4199L189.975 59.291V58.317L190.118 58.1738C191.092 58.1165 191.651 58.0688 191.794 58.0306C192.071 57.9542 192.233 57.7775 192.281 57.5006C192.405 56.8131 192.467 55.333 192.467 53.0604V45.4834C192.467 43.2108 192.405 41.7307 192.281 41.0432C192.233 40.7663 192.071 40.5896 191.794 40.5132C191.651 40.475 191.092 40.4273 190.118 40.37L189.975 40.2268V39.2528L190.118 39.1239C191.054 39.1812 192.524 39.2098 194.53 39.2098C195.695 39.2098 196.64 39.1955 197.366 39.1668C198.808 39.1095 199.887 39.0809 200.603 39.0809C202.255 39.0809 203.467 39.2289 204.241 39.5249C205.282 39.926 205.979 40.6039 206.332 41.5588C206.504 42.0267 206.59 42.5805 206.59 43.2203C206.59 45.8176 205.129 47.6605 202.207 48.7491C202.684 49.5512 203.19 50.3628 203.725 51.184L205.931 54.5787C207.23 56.5839 208.094 57.725 208.523 58.0019C208.743 58.1452 209.049 58.2168 209.44 58.2168L209.583 58.36V59.2767Z" fill="#fff"/>
<path d="M0.0229492 76.2458H81.0229" stroke="#fff" stroke-width="0.977801"/>
<path d="M98.2639 73.3869C99.4052 73.3869 100.376 73.7922 101.176 74.6029C101.987 75.4135 102.392 76.4055 102.392 77.5789C102.392 78.7522 101.987 79.7442 101.176 80.5549C100.376 81.3655 99.4052 81.7709 98.2639 81.7709C96.8452 81.7709 95.7679 81.1842 95.0319 80.0109V84.7789H93.9759V73.5789H95.0319V75.1469C95.7679 73.9735 96.8452 73.3869 98.2639 73.3869ZM95.9439 79.8349C96.5519 80.4429 97.2985 80.7469 98.1839 80.7469C99.0692 80.7469 99.8159 80.4429 100.424 79.8349C101.032 79.2162 101.336 78.4642 101.336 77.5789C101.336 76.6935 101.032 75.9469 100.424 75.3389C99.8159 74.7202 99.0692 74.4109 98.1839 74.4109C97.2985 74.4109 96.5519 74.7202 95.9439 75.3389C95.3359 75.9469 95.0319 76.6935 95.0319 77.5789C95.0319 78.4642 95.3359 79.2162 95.9439 79.8349ZM108.404 74.9069C108.894 73.9362 109.737 73.4509 110.932 73.4509V74.4749C110.206 74.4749 109.604 74.6882 109.124 75.1149C108.644 75.5415 108.404 76.2135 108.404 77.1309V81.5789H107.348V73.5789H108.404V74.9069ZM118.791 73.3869C119.975 73.3869 120.929 73.8082 121.655 74.6509C122.391 75.4829 122.759 76.4695 122.759 77.6109C122.759 77.7282 122.748 77.8935 122.727 78.1069H115.703C115.809 78.9175 116.151 79.5629 116.727 80.0429C117.313 80.5122 118.033 80.7469 118.887 80.7469C119.495 80.7469 120.017 80.6242 120.455 80.3789C120.903 80.1229 121.239 79.7922 121.463 79.3869L122.391 79.9309C122.039 80.4962 121.559 80.9442 120.951 81.2749C120.343 81.6055 119.649 81.7709 118.871 81.7709C117.612 81.7709 116.588 81.3762 115.799 80.5869C115.009 79.7975 114.615 78.7949 114.615 77.5789C114.615 76.3842 115.004 75.3869 115.783 74.5869C116.561 73.7869 117.564 73.3869 118.791 73.3869ZM118.791 74.4109C117.959 74.4109 117.26 74.6615 116.695 75.1629C116.14 75.6535 115.809 76.2935 115.703 77.0829H121.671C121.564 76.2402 121.239 75.5842 120.695 75.1149C120.151 74.6455 119.516 74.4109 118.791 74.4109ZM136.166 73.3869C137.062 73.3869 137.782 73.6749 138.326 74.2509C138.881 74.8269 139.158 75.6055 139.158 76.5869V81.5789H138.102V76.5869C138.102 75.8935 137.921 75.3602 137.558 74.9869C137.206 74.6029 136.737 74.4109 136.15 74.4109C135.489 74.4109 134.95 74.6349 134.534 75.0829C134.129 75.5202 133.926 76.2082 133.926 77.1469V81.5789H132.87V76.5869C132.87 75.8829 132.7 75.3442 132.358 74.9709C132.028 74.5975 131.574 74.4109 130.998 74.4109C130.358 74.4109 129.814 74.6349 129.366 75.0829C128.918 75.5309 128.694 76.2189 128.694 77.1469V81.5789H127.638V73.5789H128.694V74.7469C129.27 73.8402 130.086 73.3869 131.142 73.3869C132.294 73.3869 133.105 73.8722 133.574 74.8429C134.15 73.8722 135.014 73.3869 136.166 73.3869ZM145.473 71.6589C145.324 71.8082 145.142 71.8829 144.929 71.8829C144.716 71.8829 144.534 71.8082 144.385 71.6589C144.236 71.5095 144.161 71.3282 144.161 71.1149C144.161 70.9015 144.236 70.7202 144.385 70.5709C144.534 70.4215 144.716 70.3469 144.929 70.3469C145.142 70.3469 145.324 70.4215 145.473 70.5709C145.622 70.7202 145.697 70.9015 145.697 71.1149C145.697 71.3282 145.622 71.5095 145.473 71.6589ZM144.401 81.5789V73.5789H145.457V81.5789H144.401ZM156.53 73.5789H157.586V81.5789H156.53V80.3309C155.932 81.2909 155.036 81.7709 153.842 81.7709C152.871 81.7709 152.103 81.4775 151.538 80.8909C150.983 80.2935 150.706 79.4935 150.706 78.4909V73.5789H151.762V78.4909C151.762 79.2055 151.948 79.7602 152.322 80.1549C152.706 80.5495 153.244 80.7469 153.938 80.7469C154.706 80.7469 155.33 80.5069 155.81 80.0269C156.29 79.5362 156.53 78.7842 156.53 77.7709V73.5789ZM171.548 73.3869C172.444 73.3869 173.164 73.6749 173.708 74.2509C174.262 74.8269 174.54 75.6055 174.54 76.5869V81.5789H173.484V76.5869C173.484 75.8935 173.302 75.3602 172.94 74.9869C172.588 74.6029 172.118 74.4109 171.532 74.4109C170.87 74.4109 170.332 74.6349 169.916 75.0829C169.51 75.5202 169.308 76.2082 169.308 77.1469V81.5789H168.252V76.5869C168.252 75.8829 168.081 75.3442 167.74 74.9709C167.409 74.5975 166.956 74.4109 166.38 74.4109C165.74 74.4109 165.196 74.6349 164.748 75.0829C164.3 75.5309 164.076 76.2189 164.076 77.1469V81.5789H163.02V73.5789H164.076V74.7469C164.652 73.8402 165.468 73.3869 166.524 73.3869C167.676 73.3869 168.486 73.8722 168.956 74.8429C169.532 73.8722 170.396 73.3869 171.548 73.3869ZM183.51 81.7709C182.305 81.7709 181.302 81.3709 180.502 80.5709C179.702 79.7602 179.302 78.7629 179.302 77.5789C179.302 76.3949 179.702 75.4029 180.502 74.6029C181.302 73.7922 182.305 73.3869 183.51 73.3869C184.299 73.3869 185.009 73.5789 185.638 73.9629C186.267 74.3362 186.726 74.8429 187.014 75.4829L186.15 75.9789C185.937 75.4989 185.59 75.1202 185.11 74.8429C184.641 74.5549 184.107 74.4109 183.51 74.4109C182.625 74.4109 181.878 74.7202 181.27 75.3389C180.662 75.9469 180.358 76.6935 180.358 77.5789C180.358 78.4642 180.662 79.2162 181.27 79.8349C181.878 80.4429 182.625 80.7469 183.51 80.7469C184.107 80.7469 184.641 80.6082 185.11 80.3309C185.579 80.0429 185.947 79.6589 186.214 79.1789L187.094 79.6909C186.763 80.3309 186.278 80.8375 185.638 81.2109C184.998 81.5842 184.289 81.7709 183.51 81.7709ZM198.612 73.5789H199.668V81.5789H198.612V80.0109C197.876 81.1842 196.799 81.7709 195.38 81.7709C194.239 81.7709 193.263 81.3655 192.452 80.5549C191.652 79.7442 191.252 78.7522 191.252 77.5789C191.252 76.4055 191.652 75.4135 192.452 74.6029C193.263 73.7922 194.239 73.3869 195.38 73.3869C196.799 73.3869 197.876 73.9735 198.612 75.1469V73.5789ZM193.22 79.8349C193.828 80.4429 194.575 80.7469 195.46 80.7469C196.345 80.7469 197.092 80.4429 197.7 79.8349C198.308 79.2162 198.612 78.4642 198.612 77.5789C198.612 76.6935 198.308 75.9469 197.7 75.3389C197.092 74.7202 196.345 74.4109 195.46 74.4109C194.575 74.4109 193.828 74.7202 193.22 75.3389C192.612 75.9469 192.308 76.6935 192.308 77.5789C192.308 78.4642 192.612 79.2162 193.22 79.8349ZM206.16 74.9069C206.651 73.9362 207.493 73.4509 208.688 73.4509V74.4749C207.963 74.4749 207.36 74.6882 206.88 75.1149C206.4 75.5415 206.16 76.2135 206.16 77.1309V81.5789H205.104V73.5789H206.16V74.9069Z" fill="#fff"/>
</svg>
