<svg width="98" height="111" viewBox="0 0 98 111" fill="none" xmlns="http://www.w3.org/2000/svg">
<circle cx="49" cy="49" r="49" fill="#EDC5A2"/>
<path d="M48.5 111L36.8087 95.25L60.1913 95.25L48.5 111Z" fill="#EDC5A2"/>
<path d="M46.8556 28.8V40H45.0156V32.016L41.6076 37.648H41.3836L37.9756 32V40H36.1356V28.8H38.1196L41.4956 34.4L44.8876 28.8H46.8556ZM49.0888 40V28.8H50.9288V32.64H53.2168C54.2728 32.64 55.1528 32.9973 55.8568 33.712C56.5714 34.416 56.9288 35.2853 56.9288 36.32C56.9288 37.3547 56.5714 38.2293 55.8568 38.944C55.1528 39.648 54.2728 40 53.2168 40H49.0888ZM58.0168 40V28.8H59.8568V40H58.0168ZM50.9288 38.272H53.2168C53.7608 38.272 54.2088 38.0907 54.5608 37.728C54.9128 37.3547 55.0888 36.8853 55.0888 36.32C55.0888 35.7547 54.9128 35.2907 54.5608 34.928C54.2088 34.5547 53.7608 34.368 53.2168 34.368H50.9288V38.272ZM27.9723 65.192C29.1136 65.736 29.6843 66.6373 29.6843 67.896C29.6843 68.8773 29.3109 69.6773 28.5643 70.296C27.8283 70.904 26.8629 71.208 25.6683 71.208C23.6203 71.208 22.2656 70.344 21.6043 68.616L23.1883 67.704C23.5189 68.888 24.3456 69.48 25.6683 69.48C26.3723 69.48 26.9109 69.3307 27.2843 69.032C27.6576 68.7227 27.8443 68.312 27.8443 67.8C27.8443 67.2987 27.6629 66.8987 27.3003 66.6C26.9483 66.2907 26.4469 66.136 25.7963 66.136H24.4363V64.472H25.4283C26.0576 64.472 26.5483 64.328 26.9003 64.04C27.2523 63.752 27.4283 63.368 27.4283 62.888C27.4283 62.408 27.2683 62.0293 26.9483 61.752C26.6283 61.464 26.1696 61.32 25.5723 61.32C24.4629 61.32 23.7163 61.8267 23.3323 62.84L21.7643 61.928C22.4896 60.3707 23.7589 59.592 25.5723 59.592C26.6709 59.592 27.5616 59.8907 28.2443 60.488C28.9269 61.0747 29.2683 61.8427 29.2683 62.792C29.2683 63.848 28.8363 64.648 27.9723 65.192ZM39.6138 69.24H40.8138V73.144H38.9738V71H32.1738V73.144H30.3338V69.24H31.3738C32.0244 68.3867 32.3498 67.1013 32.3498 65.384V59.8H39.6138V69.24ZM33.3898 69.24H37.7738V61.528H34.1898V65.416C34.1898 67.08 33.9231 68.3547 33.3898 69.24ZM44.2569 69.24H49.2169V71H42.4169V59.8H49.1369V61.56H44.2569V64.472H48.7369V66.216H44.2569V69.24ZM56.1035 71.208C54.4182 71.208 53.0208 70.6533 51.9115 69.544C50.8022 68.424 50.2475 67.0427 50.2475 65.4C50.2475 63.7573 50.8022 62.3813 51.9115 61.272C53.0208 60.152 54.4182 59.592 56.1035 59.592C57.1168 59.592 58.0502 59.832 58.9035 60.312C59.7675 60.792 60.4395 61.4427 60.9195 62.264L59.3195 63.192C59.0208 62.6373 58.5835 62.2 58.0075 61.88C57.4422 61.5493 56.8075 61.384 56.1035 61.384C54.9088 61.384 53.9382 61.7627 53.1915 62.52C52.4555 63.2773 52.0875 64.2373 52.0875 65.4C52.0875 66.5627 52.4555 67.5227 53.1915 68.28C53.9382 69.0373 54.9088 69.416 56.1035 69.416C56.8075 69.416 57.4475 69.256 58.0235 68.936C58.5995 68.6053 59.0315 68.1627 59.3195 67.608L60.9195 68.52C60.4502 69.3413 59.7835 69.9973 58.9195 70.488C58.0662 70.968 57.1275 71.208 56.1035 71.208ZM66.5761 63.64C67.6321 63.64 68.5121 63.9973 69.2161 64.712C69.9308 65.416 70.2881 66.2853 70.2881 67.32C70.2881 68.3653 69.9308 69.24 69.2161 69.944C68.5121 70.648 67.6321 71 66.5761 71H62.4481V59.8H64.2881V63.64H66.5761ZM66.5761 69.272C67.1201 69.272 67.5681 69.0907 67.9201 68.728C68.2721 68.3547 68.4481 67.8853 68.4481 67.32C68.4481 66.7547 68.2721 66.2907 67.9201 65.928C67.5681 65.5547 67.1201 65.368 66.5761 65.368H64.2881V69.272H66.5761ZM72.1256 67.48L71.7736 63V59.8H73.8536V63L73.4856 67.48H72.1256ZM73.6616 70.84C73.427 71.0747 73.1443 71.192 72.8136 71.192C72.483 71.192 72.2003 71.0747 71.9656 70.84C71.731 70.6053 71.6136 70.3227 71.6136 69.992C71.6136 69.6613 71.7256 69.3787 71.9496 69.144C72.1843 68.9093 72.4723 68.792 72.8136 68.792C73.1443 68.792 73.427 68.9093 73.6616 69.144C73.8963 69.3787 74.0136 69.6613 74.0136 69.992C74.0136 70.3227 73.8963 70.6053 73.6616 70.84Z" fill="#0A0C11"/>
</svg>
