<?xml version="1.0" standalone="no"?>
<!DOCTYPE svg PUBLIC "-//W3C//DTD SVG 20010904//EN"
 "http://www.w3.org/TR/2001/REC-SVG-20010904/DTD/svg10.dtd">
<svg version="1.0" xmlns="http://www.w3.org/2000/svg"
 width="512.000000pt" height="512.000000pt" viewBox="0 0 512.000000 512.000000"
 preserveAspectRatio="xMidYMid meet">
<metadata>
Created by potrace 1.14, written by Peter Selinger 2001-2017
</metadata>
<g transform="translate(0.000000,512.000000) scale(0.100000,-0.100000)"
fill="#000000" stroke="none">
<path d="M2510 4751 c0 -6 -6 -11 -13 -11 -7 0 -20 -13 -30 -29 -14 -24 -15
-35 -6 -58 21 -56 -20 -176 -82 -235 -16 -16 -29 -26 -29 -24 0 2 -16 -4 -36
-13 -23 -11 -54 -17 -84 -15 -51 2 -120 23 -120 35 0 4 -8 10 -19 14 -29 9
-85 134 -76 173 3 12 7 31 9 42 5 19 -34 70 -52 70 -15 0 -34 -18 -47 -44 -12
-23 -13 -31 -1 -49 8 -12 15 -34 15 -49 1 -16 2 -34 2 -40 4 -69 -37 -177 -75
-197 -37 -20 -87 -20 -108 1 -10 10 -24 18 -32 18 -8 0 -20 16 -27 35 -7 19
-16 35 -19 35 -3 0 -7 8 -8 18 -1 9 -3 26 -5 37 -2 11 0 23 5 26 6 4 7 16 4
27 -8 24 -93 75 -102 61 -3 -5 4 -35 16 -67 12 -31 23 -64 25 -72 2 -8 15 -46
30 -85 15 -38 27 -76 28 -82 0 -7 4 -13 9 -13 5 0 7 -3 5 -7 -3 -5 0 -19 6
-33 12 -29 18 -50 19 -67 1 -7 5 -13 9 -13 4 0 10 -15 13 -33 3 -19 12 -41 19
-51 12 -17 27 -15 97 11 17 7 15 6 93 27 31 9 74 18 95 21 20 2 48 7 62 10 14
3 43 6 65 6 22 1 44 4 50 7 16 10 369 9 388 0 9 -5 17 -5 17 0 0 8 55 4 205
-14 33 -3 72 -8 86 -9 14 -1 30 -4 36 -8 5 -3 25 -9 44 -12 19 -3 45 -9 59
-14 20 -7 100 -31 120 -36 3 -1 23 -9 45 -19 39 -17 40 -17 57 6 10 13 18 30
18 38 0 9 5 21 10 26 6 6 12 24 14 41 2 16 16 54 31 83 15 29 28 60 30 69 2 9
9 30 16 46 7 17 13 32 14 35 1 3 5 12 8 20 24 58 57 154 53 157 -6 6 -103 -44
-111 -57 -4 -6 -2 -16 4 -23 10 -13 9 -46 -4 -87 -9 -30 -80 -99 -103 -101
-87 -8 -131 34 -149 141 -9 57 -7 151 4 158 21 15 20 40 -4 70 -13 18 -28 32
-33 32 -5 0 -22 -13 -38 -28 -26 -25 -28 -31 -17 -52 14 -26 9 -91 -8 -102 -7
-4 -9 -8 -4 -8 13 0 -20 -54 -51 -82 -45 -39 -71 -51 -126 -53 -107 -5 -197
57 -237 164 -24 66 -27 103 -9 137 12 21 11 28 -6 51 -24 32 -64 60 -64 44z
m44 -378 c81 -38 43 -163 -50 -163 -22 0 -74 58 -74 83 0 38 12 67 26 67 8 0
14 4 14 9 0 5 10 12 23 14 12 2 23 5 24 6 1 0 18 -6 37 -16z m-465 -105 c8
-14 11 -35 8 -49 -7 -29 -53 -57 -84 -51 -33 5 -63 47 -57 80 14 76 94 88 133
20z m974 1 c37 -46 7 -111 -54 -117 -32 -4 -84 51 -73 77 3 9 8 23 11 32 12
41 85 46 116 8z"/>
<path d="M2318 4085 c-3 -3 -43 -8 -89 -11 -109 -6 -124 -9 -249 -38 -208 -49
-200 -46 -195 -74 2 -13 6 -26 8 -28 2 -2 26 3 54 11 54 16 230 54 278 60 17
2 66 6 109 10 43 4 88 9 100 11 36 7 331 3 331 -5 0 -1 23 -4 50 -7 55 -5 104
-11 150 -19 17 -3 41 -7 55 -9 14 -3 25 -5 25 -6 0 -2 22 -7 70 -14 46 -7 132
-33 157 -47 10 -5 27 -9 38 -9 21 0 46 35 31 45 -11 6 -123 43 -156 51 -11 3
-24 6 -30 8 -5 2 -28 7 -50 11 -56 13 -55 12 -57 15 -6 5 -74 16 -163 25 -33
3 -71 8 -85 11 -36 7 -376 15 -382 9z"/>
<path d="M3197 3824 c-2 -2 -25 -6 -53 -9 -101 -11 -151 -21 -168 -33 -6 -4
-38 -16 -71 -27 -33 -11 -62 -22 -65 -25 -3 -3 -25 -16 -50 -29 -25 -14 -56
-35 -70 -48 -14 -13 -28 -23 -32 -23 -5 0 -8 -7 -8 -15 0 -9 -7 -18 -15 -22
-14 -5 -79 -90 -80 -103 0 -3 -4 -11 -8 -17 -20 -32 18 -37 53 -8 28 24 173
94 181 89 5 -3 9 0 9 7 0 7 3 10 6 6 3 -3 16 -2 29 3 40 15 36 -2 -11 -43 -42
-37 -44 -41 -29 -57 12 -13 28 -18 56 -15 21 2 41 0 43 -4 3 -4 21 -7 41 -6
19 2 35 0 35 -4 0 -3 13 -6 29 -7 16 -1 37 -5 47 -9 11 -4 24 -9 29 -9 32 -4
115 -31 115 -38 0 -4 3 -7 8 -6 12 3 82 -25 82 -34 0 -4 9 -8 20 -8 11 0 20
-4 20 -10 0 -5 7 -10 15 -10 8 0 15 -4 15 -9 0 -5 9 -13 21 -16 27 -9 145
-127 154 -154 3 -12 11 -21 16 -21 6 0 8 -4 5 -9 -4 -5 -2 -11 4 -13 5 -1 14
-18 19 -35 7 -25 7 -33 -4 -33 -7 0 -15 7 -19 15 -3 8 -13 15 -23 15 -10 0
-29 9 -43 20 -14 11 -30 20 -37 20 -32 0 -233 171 -233 198 0 6 -9 12 -19 12
-14 0 -19 -6 -17 -23 5 -44 40 -139 53 -144 7 -3 10 -9 7 -14 -3 -5 0 -9 5 -9
6 0 11 -6 11 -13 0 -8 12 -25 28 -39 15 -14 34 -35 42 -45 8 -11 56 -52 105
-91 50 -40 100 -81 113 -92 12 -12 22 -18 22 -14 0 12 141 -138 166 -177 65
-103 120 -231 123 -286 3 -39 51 11 51 52 0 8 4 15 9 15 5 0 8 8 7 17 -2 10 1
36 6 58 26 115 25 309 -2 380 -5 14 -9 29 -8 33 5 18 -64 205 -82 222 -9 8
-40 60 -39 62 3 5 -43 57 -106 122 -68 68 -87 84 -133 112 -18 10 -32 21 -32
24 0 10 31 5 65 -10 17 -7 32 -14 35 -15 14 -3 90 -42 120 -62 60 -40 80 -56
156 -131 41 -40 78 -70 84 -67 11 7 14 48 3 59 -4 3 -8 12 -9 19 -1 7 -14 39
-30 72 -15 33 -28 63 -29 67 0 4 -6 13 -12 20 -7 6 -13 16 -13 21 0 4 -12 24
-26 43 -15 19 -23 34 -18 34 4 0 -28 35 -72 78 -123 119 -238 182 -423 232
-41 11 -167 21 -174 14z"/>
<path d="M1768 3815 c-2 -1 -29 -5 -61 -9 -201 -21 -423 -157 -544 -333 -24
-34 -43 -67 -43 -73 0 -5 -4 -10 -10 -10 -5 0 -10 -9 -10 -20 0 -11 -4 -20
-10 -20 -5 0 -10 -6 -10 -12 0 -7 -6 -24 -13 -38 -16 -31 -26 -64 -34 -108 -4
-30 -3 -33 14 -23 10 5 43 36 73 68 77 81 238 190 295 198 6 1 24 7 40 14 48
19 53 20 59 14 6 -6 -37 -43 -49 -43 -9 0 -77 -53 -133 -105 -101 -91 -214
-302 -227 -423 -2 -18 -7 -37 -11 -43 -7 -11 -16 -116 -16 -189 0 -58 19 -180
40 -252 19 -66 40 -76 51 -26 12 54 90 228 102 228 5 0 9 6 9 14 0 7 14 27 30
44 17 18 30 34 30 37 0 7 90 93 90 86 0 -3 8 4 18 16 9 11 33 32 52 45 35 23
77 58 112 91 10 9 18 14 18 10 0 -5 93 89 124 127 48 58 91 175 77 213 -8 21
-9 21 -24 -8 -18 -35 -51 -71 -93 -102 -86 -66 -124 -92 -124 -88 0 3 -17 -5
-37 -18 -21 -13 -48 -27 -60 -31 -13 -4 -23 -12 -23 -17 0 -5 -10 -9 -21 -9
-18 0 -19 2 -9 15 7 8 9 15 5 15 -8 0 32 68 52 88 7 7 13 17 13 21 0 16 88
100 140 133 76 49 167 94 220 109 25 7 50 14 55 15 48 14 94 26 115 28 14 2
50 6 81 10 70 8 100 14 106 20 9 8 -25 48 -56 67 -41 25 -41 43 0 34 17 -4 37
-8 43 -9 17 -3 170 -77 176 -85 15 -20 58 -38 71 -30 12 7 12 10 1 18 -8 4
-13 11 -13 15 4 25 -136 178 -185 201 -19 9 -34 20 -34 25 0 7 -28 21 -50 25
-3 0 -27 8 -55 18 -27 9 -59 18 -70 20 -11 1 -24 5 -30 9 -12 7 -68 19 -110
24 -50 6 -144 12 -147 9z"/>
<path d="M2135 3351 c-22 -8 -41 -19 -43 -23 -2 -4 -10 -8 -17 -8 -8 0 -21 -7
-29 -16 -9 -8 -16 -13 -16 -10 0 3 -23 -18 -50 -47 -96 -100 -126 -206 -77
-277 26 -40 97 -79 153 -85 133 -15 165 -28 237 -100 44 -46 48 -65 10 -62
-16 1 -28 -3 -29 -10 -1 -7 -3 -14 -4 -15 -1 -2 -3 -23 -5 -48 -1 -25 -3 -45
-4 -45 -2 0 -5 -11 -7 -25 -5 -30 -23 -51 -25 -30 -1 8 -1 22 0 31 2 21 -52
79 -76 80 -138 6 -174 22 -206 92 -12 26 -25 47 -29 47 -5 0 -8 6 -8 14 0 13
-23 26 -57 32 -10 2 -73 -58 -73 -70 0 -3 -5 -17 -11 -33 -28 -68 -28 -200 0
-268 32 -80 56 -117 98 -152 25 -21 52 -44 59 -51 8 -7 14 -11 14 -8 0 4 18
-3 41 -14 41 -21 75 -20 76 3 1 23 15 102 19 109 12 19 23 5 29 -34 10 -69 26
-110 61 -163 l34 -49 -39 -21 c-60 -32 -80 -50 -100 -88 -33 -65 -14 -159 46
-222 89 -95 156 -97 268 -12 49 38 141 127 130 127 -4 0 -3 6 2 13 9 11 10 42
2 112 -2 18 -20 46 -46 73 -36 38 -46 44 -80 42 -55 -4 -70 -2 -85 13 -8 6
-22 17 -33 23 -22 12 -42 41 -34 49 3 3 19 -1 34 -9 32 -17 51 -12 58 13 7 27
38 30 103 10 74 -24 122 -30 130 -18 3 5 9 7 13 5 4 -3 31 4 59 14 55 21 94
16 105 -14 7 -19 48 -21 65 -4 9 9 12 9 12 -2 -1 -43 -81 -92 -134 -83 -121
19 -192 -190 -95 -279 16 -15 29 -32 29 -39 0 -7 3 -10 6 -6 3 3 16 -3 28 -14
47 -45 126 -90 160 -91 67 -2 148 63 190 156 22 47 16 128 -11 159 -35 41 -40
45 -84 67 -24 12 -46 24 -48 26 -1 1 11 20 27 41 32 40 61 113 68 173 3 18 7
36 10 39 8 8 24 -22 24 -46 0 -13 4 -23 10 -23 5 0 7 -6 4 -14 -8 -22 11 -49
35 -51 12 -1 21 3 21 8 0 6 3 8 6 4 17 -17 174 101 174 131 0 7 4 12 9 12 7 0
28 42 41 82 13 39 25 122 25 158 -2 69 -33 154 -69 189 -28 27 -36 30 -59 22
-25 -10 -77 -75 -77 -96 0 -16 -51 -62 -77 -69 -40 -13 -68 -17 -97 -17 -15 0
-38 -4 -50 -9 -26 -9 -60 -74 -52 -96 3 -8 1 -14 -4 -14 -11 0 -39 95 -38 132
1 37 -21 58 -50 47 -27 -10 -26 -8 7 42 38 55 116 108 171 114 14 2 48 6 75
10 208 29 248 187 91 359 -24 25 -46 46 -50 46 -4 0 -16 9 -28 20 -12 11 -30
20 -40 20 -10 0 -18 4 -18 8 0 14 -84 31 -140 28 -55 -2 -100 -13 -110 -25 -3
-3 -22 -19 -42 -34 -21 -15 -38 -35 -38 -43 0 -7 -4 -14 -8 -14 -10 0 -55 -94
-55 -115 0 -8 -4 -15 -9 -15 -5 0 -7 -4 -4 -8 2 -4 1 -14 -4 -22 -6 -9 -12 0
-20 31 -7 24 -20 63 -31 86 -23 51 -112 143 -139 143 -10 0 -21 4 -24 9 -9 15
-137 9 -181 -8z"/>
<path d="M1595 2807 c-34 -26 -133 -125 -155 -153 -14 -20 -25 -38 -52 -86 -7
-13 -17 -26 -23 -30 -7 -5 -7 -8 0 -8 7 0 6 -3 0 -8 -14 -9 -55 -131 -55 -159
0 -13 -3 -23 -7 -23 -24 0 -18 -413 6 -430 8 -5 33 -64 33 -77 0 -4 9 -19 19
-32 11 -13 19 -28 19 -33 0 -5 11 -24 25 -42 14 -18 25 -36 25 -39 0 -4 26
-34 59 -67 47 -49 60 -58 69 -47 7 8 8 17 4 21 -4 4 -8 12 -8 17 -1 5 -2 10
-4 12 -16 20 -43 183 -41 257 1 105 2 110 15 110 10 0 86 -111 86 -125 0 -4 9
-27 21 -52 11 -25 22 -59 24 -74 2 -16 8 -44 13 -61 10 -37 8 -261 -3 -278 -3
-6 -9 -27 -11 -47 -3 -20 -9 -42 -15 -49 -13 -15 14 -26 40 -16 24 8 111 90
111 103 0 5 7 9 16 9 8 0 13 4 9 9 -6 11 13 26 22 17 3 -3 7 -25 8 -48 2 -24
8 -63 15 -88 7 -25 12 -46 11 -48 -4 -9 58 -109 91 -146 52 -60 65 -59 71 6 6
68 12 93 22 93 5 0 12 -11 15 -25 14 -50 49 -106 102 -163 30 -31 58 -57 61
-57 4 0 17 -9 29 -19 13 -11 34 -29 48 -40 64 -53 120 -106 120 -114 0 -4 8
-17 19 -28 10 -11 27 -38 37 -59 10 -22 25 -39 32 -38 7 2 12 7 12 12 -1 5 2
12 7 15 5 3 19 22 31 41 35 58 132 149 192 180 39 20 119 94 123 113 1 7 4 14
7 17 11 9 55 75 55 81 0 3 8 13 17 23 10 10 21 28 24 42 11 44 23 15 21 -53
-1 -45 2 -68 10 -70 15 -5 87 67 108 107 27 52 66 164 61 176 -3 7 -2 15 2 19
3 3 7 20 7 37 1 29 25 55 25 28 0 -11 66 -78 126 -129 19 -17 51 -2 46 21 -2
7 -6 22 -8 33 -2 11 -6 31 -9 45 -4 23 -13 89 -19 150 -1 14 2 28 8 32 7 5 7
8 -2 8 -7 0 -10 4 -7 10 3 5 9 31 12 57 6 51 11 78 13 78 1 0 3 13 5 29 5 40
95 215 116 227 10 5 20 5 23 1 6 -11 1 -221 -6 -242 -3 -8 -9 -34 -13 -57 -4
-24 -11 -43 -15 -43 -3 0 -7 -6 -7 -12 0 -7 -4 -21 -8 -30 -14 -34 22 -32 58
4 57 57 143 181 153 223 3 9 40 120 52 155 9 26 13 91 13 190 -1 119 -4 153
-14 161 -4 3 -9 17 -11 30 -4 39 -17 81 -37 125 -10 22 -19 46 -19 52 0 7 -4
12 -10 12 -5 0 -10 5 -10 11 0 7 -16 34 -35 60 -19 27 -35 51 -35 54 0 6 -78
84 -128 127 -24 22 -33 24 -41 14 -9 -10 -6 -24 8 -52 40 -80 45 -103 45 -209
1 -112 -21 -180 -31 -97 -2 15 -8 41 -14 59 -9 27 -13 31 -27 22 -12 -8 -17
-23 -16 -48 0 -20 -2 -45 -7 -57 -4 -11 -10 -37 -13 -56 -3 -19 -10 -47 -15
-62 -6 -14 -8 -26 -5 -26 4 0 -1 -11 -10 -25 -9 -13 -17 -36 -18 -50 -2 -15
-8 -31 -15 -37 -7 -6 -13 -17 -13 -24 0 -8 -5 -14 -11 -14 -5 0 -8 -4 -5 -9 3
-4 -1 -16 -8 -26 -13 -18 -14 -18 -25 3 -6 12 -9 22 -5 22 4 0 -4 9 -18 20
-37 28 -75 33 -98 10 -10 -10 -20 -16 -23 -14 -2 3 -10 -16 -17 -41 -11 -38
-10 -55 4 -110 22 -89 23 -163 0 -210 -23 -49 -99 -127 -141 -146 -18 -8 -33
-21 -34 -29 -11 -190 -26 -270 -51 -270 -5 0 -7 -4 -4 -8 2 -4 2 -12 -2 -18
-15 -21 -100 -84 -114 -84 -7 0 -19 -5 -24 -10 -6 -6 -28 -13 -50 -15 -21 -3
-53 -9 -70 -14 -73 -20 -234 11 -314 60 -27 17 -50 34 -50 37 0 4 -10 19 -22
32 -22 24 -25 32 -33 70 -2 8 -4 15 -5 15 -1 0 -3 9 -6 20 -11 53 -15 95 -15
143 1 46 -2 55 -19 59 -11 3 -20 9 -20 13 0 5 -8 11 -18 14 -30 10 -85 66
-111 115 -20 38 -24 59 -23 116 1 38 9 93 17 123 12 41 14 61 6 85 -6 18 -11
37 -12 42 -1 6 -18 17 -37 26 -46 22 -84 9 -113 -38 l-22 -35 -23 48 c-39 86
-54 122 -54 132 0 6 -5 23 -11 39 -7 15 -13 37 -14 48 -2 11 -6 31 -9 45 -12
45 -16 69 -19 110 -1 22 -5 40 -9 40 -14 0 -39 -47 -43 -80 -7 -56 -24 -55
-32 2 -4 31 -5 148 -1 176 1 6 5 12 9 12 4 0 6 9 4 19 -2 11 3 27 10 38 8 10
15 25 15 34 0 9 6 22 14 28 13 11 16 34 5 45 -3 3 -18 -4 -34 -17z"/>
<path d="M2999 2816 c-2 -3 -16 -7 -29 -10 -47 -8 -120 -47 -120 -62 0 -24 23
-39 55 -36 51 4 55 5 55 13 0 4 9 10 19 14 23 7 48 62 34 76 -5 5 -11 7 -14 5z"/>
<path d="M2027 2804 c-18 -18 60 -91 106 -100 29 -5 82 34 69 52 -9 13 -122
54 -149 54 -11 0 -23 -3 -26 -6z"/>
<path d="M2293 1665 c-11 -25 -17 -48 -12 -51 5 -3 6 -11 2 -17 -4 -7 -9 -23
-11 -37 -1 -14 -10 -39 -19 -56 -24 -46 -11 -114 29 -149 16 -15 35 -28 42
-29 6 -1 21 -7 32 -14 27 -14 117 -29 164 -26 105 6 153 14 167 26 9 7 18 12
20 10 7 -5 59 27 79 50 24 28 29 102 9 134 -8 12 -16 41 -19 65 -9 64 -10 71
-24 105 -7 17 -20 31 -28 31 -13 0 -42 -41 -45 -64 -3 -20 -12 -32 -20 -27
-26 16 -209 28 -209 13 0 -4 -9 -6 -20 -4 -11 2 -22 -1 -26 -6 -9 -15 -31 7
-39 39 -16 65 -44 68 -72 7z"/>
<path d="M1344 1143 c-47 -46 -74 -86 -80 -121 -3 -15 -11 -30 -17 -34 -9 -6
-9 -8 1 -8 7 0 10 -5 7 -10 -11 -17 34 -100 51 -93 8 3 14 11 14 19 0 8 4 14
9 14 5 0 12 12 16 28 5 15 9 32 11 37 21 68 42 205 32 205 -2 0 -22 -17 -44
-37z"/>
<path d="M3659 1173 c-1 -4 -1 -12 0 -17 1 -6 5 -30 8 -55 13 -111 28 -160 64
-208 15 -21 17 -21 32 -5 41 45 42 119 1 183 -30 48 -103 118 -105 102z"/>
<path d="M1123 953 c-15 -34 -7 -77 29 -151 35 -70 99 -123 166 -135 24 -5 32
-3 32 8 0 8 -4 15 -10 15 -5 0 -10 9 -10 20 0 11 -4 20 -10 20 -5 0 -10 6 -10
13 0 15 -68 105 -132 177 -41 45 -47 49 -55 33z"/>
<path d="M3862 911 c-24 -27 -51 -59 -60 -72 -9 -13 -24 -32 -34 -43 -20 -22
-71 -126 -64 -133 11 -11 86 20 126 54 68 56 100 137 91 231 -2 21 -15 13 -59
-37z"/>
<path d="M1427 923 c-20 -14 -39 -34 -42 -44 -4 -11 -10 -19 -14 -19 -9 0 -12
-11 -15 -73 -2 -26 -6 -50 -9 -54 -7 -6 -22 46 -19 63 1 6 -6 18 -15 25 -16
12 -17 12 -7 -1 6 -8 11 -23 11 -33 0 -22 54 -137 65 -137 4 0 8 -6 8 -13 0
-15 82 -102 111 -117 31 -17 22 -3 -27 42 -47 44 -130 156 -121 164 3 3 15 -9
27 -26 17 -23 25 -28 35 -20 20 16 47 79 52 119 3 20 5 43 7 51 1 8 5 21 9 28
5 6 4 12 -1 12 -5 0 -7 11 -5 24 7 35 -9 38 -50 9z"/>
<path d="M3569 937 c-2 -16 -2 -14 5 -72 10 -94 13 -105 37 -149 22 -42 24
-43 46 -29 13 8 23 22 23 29 0 8 5 14 10 14 7 0 7 -7 -1 -21 -8 -16 -8 -20 1
-17 6 2 10 6 9 8 -1 3 3 15 10 27 10 19 9 22 -4 17 -13 -5 -14 -2 -5 20 6 17
6 26 0 26 -6 0 -9 3 -9 8 5 29 -6 55 -41 94 -39 45 -79 67 -81 45z"/>
<path d="M3726 793 c-6 -14 -5 -15 5 -6 7 7 10 15 7 18 -3 3 -9 -2 -12 -12z"/>
<path d="M1508 733 c-27 -31 -38 -86 -27 -133 2 -8 14 -30 27 -48 13 -17 21
-36 18 -41 -7 -11 -46 -2 -46 10 0 5 -5 9 -11 9 -6 0 -24 9 -40 21 -16 11 -29
17 -29 12 0 -4 -4 -3 -8 4 -9 14 -180 103 -198 103 -7 0 -14 6 -17 13 -2 6 -8
9 -12 4 -5 -4 -2 -18 5 -31 23 -43 129 -146 150 -146 6 0 10 -3 10 -8 0 -9 72
-41 111 -49 16 -3 29 -8 29 -12 0 -3 25 -7 55 -8 30 -1 55 3 55 8 0 5 -5 9
-12 9 -6 0 -8 3 -5 6 4 4 12 2 19 -4 7 -5 29 -19 49 -30 20 -11 45 -25 55 -31
21 -12 88 -41 119 -52 15 -5 16 -7 4 -8 -9 -1 -35 6 -58 14 -23 8 -44 14 -46
14 -6 -1 -81 12 -110 18 -11 2 -31 6 -45 9 -14 3 -38 7 -55 9 -34 4 -84 14
-102 20 -7 2 -10 -2 -7 -9 5 -14 65 -52 77 -48 4 1 7 -2 7 -7 0 -5 10 -13 22
-17 12 -3 36 -13 55 -20 18 -8 35 -14 38 -15 3 0 23 -6 46 -14 23 -8 54 -16
70 -17 16 -1 29 -5 29 -8 0 -8 140 -4 180 5 19 4 41 12 48 17 8 7 17 6 27 -2
9 -7 18 -10 21 -7 3 3 20 1 37 -4 18 -5 56 -12 85 -15 75 -8 81 -9 88 -17 4
-4 -10 -7 -32 -8 -65 -2 -155 -7 -229 -15 -38 -4 -80 -7 -92 -7 -13 -1 -23 -4
-23 -8 0 -4 -8 -5 -19 -2 -10 3 -21 0 -25 -5 -3 -5 9 -13 27 -16 30 -6 42 -8
112 -24 45 -10 327 -8 350 2 11 5 23 8 27 8 4 -1 34 10 65 24 62 28 93 36 93
22 0 -4 -7 -8 -16 -8 -13 0 -14 -3 -5 -14 10 -12 17 -12 44 -1 20 8 39 10 54
4 13 -5 23 -6 23 -3 0 4 6 1 13 -5 20 -16 30 0 12 19 -15 16 -14 18 10 18 14
0 25 -4 25 -8 0 -7 38 -25 117 -54 33 -12 75 -15 200 -12 87 2 165 6 173 8 8
3 43 11 78 18 60 12 70 20 34 27 -60 12 -275 31 -361 32 -56 1 -46 13 16 19
27 2 49 8 51 13 2 4 9 6 16 3 7 -3 41 1 75 9 33 8 61 11 61 7 0 -26 260 -30
301 -4 5 3 21 8 36 10 15 3 32 8 38 13 5 4 28 13 50 20 22 8 52 22 66 32 14
10 29 16 33 12 3 -3 6 -1 6 5 0 7 5 12 11 12 11 0 39 24 39 34 0 3 -10 2 -22
-3 -13 -4 -33 -7 -45 -6 -13 1 -23 -2 -23 -6 0 -4 -8 -6 -17 -5 -10 2 -33 -1
-53 -5 -35 -8 -82 -17 -130 -24 -14 -3 -43 -9 -65 -15 -50 -14 -95 -22 -75
-14 67 28 199 95 205 103 3 6 13 11 21 11 8 0 13 -4 9 -9 -3 -6 13 -8 37 -7
60 4 117 17 124 27 3 5 12 9 20 9 43 0 188 122 219 183 19 38 13 45 -19 23
-14 -9 -32 -16 -41 -16 -8 0 -15 -3 -15 -8 0 -4 -15 -13 -32 -21 -18 -8 -71
-37 -118 -65 -47 -28 -97 -51 -111 -51 l-26 -1 25 32 c27 34 32 49 33 101 1
35 -28 94 -48 100 -8 3 -31 -34 -59 -94 -63 -132 -67 -209 -10 -182 16 8 15 5
-4 -10 -14 -12 -35 -24 -47 -27 -13 -3 -23 -11 -23 -17 0 -6 -2 -8 -6 -5 -3 3
-35 -9 -72 -27 -37 -19 -69 -31 -72 -29 -2 3 2 9 10 14 39 24 62 46 82 77 24
39 35 107 19 117 -11 7 -56 -21 -97 -59 -11 -11 -38 -33 -59 -50 -62 -48 -105
-98 -112 -127 -3 -16 -8 -28 -12 -29 -3 0 -13 -2 -21 -4 -8 -1 -35 -6 -60 -9
-25 -4 -60 -11 -77 -16 -51 -13 -41 11 15 38 51 25 99 65 120 101 18 32 9 36
-40 21 -24 -8 -46 -14 -50 -14 -3 -1 -10 -4 -14 -8 -4 -5 -15 -8 -24 -8 -10 0
-35 -8 -56 -17 -22 -9 -43 -18 -49 -19 -31 -7 -40 -10 -45 -15 -3 -3 -27 -13
-55 -24 -27 -10 -63 -33 -80 -50 -35 -38 -95 -61 -122 -47 -10 5 -23 7 -30 5
-6 -2 -23 11 -37 30 -25 33 -79 62 -166 92 -3 1 -14 5 -25 9 -18 7 -36 13 -88
30 -9 3 -19 4 -21 3 -1 -1 -10 4 -19 12 -10 7 -17 11 -17 7 0 -4 -13 0 -30 9
-16 9 -30 13 -30 10 0 -3 -9 -1 -20 5 -49 26 1 -58 61 -102 48 -35 147 -74
179 -69 13 2 13 1 0 -8 -8 -5 -17 -8 -21 -5 -7 4 -53 12 -110 19 -19 2 -47 7
-64 10 -16 4 -34 8 -40 9 -37 8 -53 19 -49 31 6 15 -92 119 -160 171 -22 16
-52 40 -68 53 -16 13 -30 22 -32 20 -41 -50 -7 -125 95 -204 14 -11 19 -16 12
-11 -7 5 -13 6 -13 2 0 -3 -15 3 -32 14 -18 11 -40 20 -50 20 -9 0 -18 3 -20
8 -1 4 -24 17 -50 30 -27 13 -48 28 -48 33 0 6 5 7 10 4 6 -3 10 0 11 7 0 7 2
21 4 31 6 34 -83 247 -103 247 -5 0 -16 -8 -24 -17z m1352 -464 c0 -6 -6 -9
-14 -6 -7 3 -18 1 -24 -5 -6 -6 -12 -6 -17 3 -5 8 -4 10 3 5 7 -4 12 -2 12 3
0 6 9 11 20 11 11 0 20 -5 20 -11z m-603 -35 c-3 -3 -12 -4 -19 -1 -8 3 -5 6
6 6 11 1 17 -2 13 -5z m560 0 c-3 -3 -12 -4 -19 -1 -8 3 -5 6 6 6 11 1 17 -2
13 -5z"/>
<path d="M3644 643 c-16 -21 -46 -57 -68 -80 -21 -24 -34 -43 -30 -43 13 0 64
49 89 84 11 15 28 37 38 48 19 24 21 28 8 28 -5 0 -21 -17 -37 -37z"/>
</g>
</svg>
